<mxfile host="app.diagrams.net" agent="Mozilla/5.0 (Windows NT 10.0; Win64; x64) AppleWebKit/537.36 (KHTML, like Gecko) Chrome/136.0.0.0 Safari/537.36" version="27.0.6">
  <diagram name="Page-1" id="cAtuh8mD8ZLCXhAd0nG4">
    <mxGraphModel dx="1123" dy="1744" grid="1" gridSize="10" guides="1" tooltips="1" connect="1" arrows="1" fold="1" page="1" pageScale="1" pageWidth="850" pageHeight="1100" math="0" shadow="0">
      <root>
        <mxCell id="0" />
        <mxCell id="1" parent="0" />
        <mxCell id="WrgPq3Kx4bvo5pnGok2Z-1" value="" style="image;html=1;image=img/lib/clip_art/computers/Server_Tower_128x128.png" vertex="1" parent="1">
          <mxGeometry x="370" y="200" width="80" height="100" as="geometry" />
        </mxCell>
        <mxCell id="WrgPq3Kx4bvo5pnGok2Z-2" value="" style="verticalLabelPosition=bottom;html=1;verticalAlign=top;align=center;strokeColor=none;fillColor=#00BEF2;shape=mxgraph.azure.user;" vertex="1" parent="1">
          <mxGeometry x="120" y="215" width="50" height="35" as="geometry" />
        </mxCell>
        <mxCell id="WrgPq3Kx4bvo5pnGok2Z-8" value="" style="html=1;verticalLabelPosition=bottom;align=center;labelBackgroundColor=#ffffff;verticalAlign=top;strokeWidth=2;strokeColor=#0080F0;shadow=0;dashed=0;shape=mxgraph.ios7.icons.settings;" vertex="1" parent="1">
          <mxGeometry x="230" y="220" width="30" height="30" as="geometry" />
        </mxCell>
        <mxCell id="WrgPq3Kx4bvo5pnGok2Z-10" value="" style="endArrow=classic;html=1;rounded=0;exitX=0.87;exitY=0.65;exitDx=0;exitDy=0;exitPerimeter=0;" edge="1" parent="1" source="WrgPq3Kx4bvo5pnGok2Z-2">
          <mxGeometry width="50" height="50" relative="1" as="geometry">
            <mxPoint x="160" y="225" as="sourcePoint" />
            <mxPoint x="230" y="237" as="targetPoint" />
          </mxGeometry>
        </mxCell>
        <mxCell id="WrgPq3Kx4bvo5pnGok2Z-11" value="" style="image;html=1;image=img/lib/clip_art/computers/Server_Tower_128x128.png" vertex="1" parent="1">
          <mxGeometry x="360" y="70" width="80" height="100" as="geometry" />
        </mxCell>
        <mxCell id="WrgPq3Kx4bvo5pnGok2Z-12" value="" style="image;html=1;image=img/lib/clip_art/computers/Server_Tower_128x128.png" vertex="1" parent="1">
          <mxGeometry x="370" y="320" width="80" height="100" as="geometry" />
        </mxCell>
        <mxCell id="WrgPq3Kx4bvo5pnGok2Z-13" value="" style="endArrow=classic;html=1;rounded=0;entryX=0;entryY=0.75;entryDx=0;entryDy=0;" edge="1" parent="1" target="WrgPq3Kx4bvo5pnGok2Z-11">
          <mxGeometry width="50" height="50" relative="1" as="geometry">
            <mxPoint x="260" y="230" as="sourcePoint" />
            <mxPoint x="310" y="180" as="targetPoint" />
          </mxGeometry>
        </mxCell>
        <mxCell id="WrgPq3Kx4bvo5pnGok2Z-14" value="" style="endArrow=classic;html=1;rounded=0;exitX=0.911;exitY=0.822;exitDx=0;exitDy=0;exitPerimeter=0;" edge="1" parent="1" source="WrgPq3Kx4bvo5pnGok2Z-8">
          <mxGeometry width="50" height="50" relative="1" as="geometry">
            <mxPoint x="380" y="360" as="sourcePoint" />
            <mxPoint x="360" y="350" as="targetPoint" />
          </mxGeometry>
        </mxCell>
        <mxCell id="WrgPq3Kx4bvo5pnGok2Z-15" value="" style="endArrow=classic;html=1;rounded=0;exitX=0.978;exitY=0.489;exitDx=0;exitDy=0;exitPerimeter=0;entryX=0;entryY=0.5;entryDx=0;entryDy=0;" edge="1" parent="1" source="WrgPq3Kx4bvo5pnGok2Z-8" target="WrgPq3Kx4bvo5pnGok2Z-1">
          <mxGeometry width="50" height="50" relative="1" as="geometry">
            <mxPoint x="380" y="360" as="sourcePoint" />
            <mxPoint x="430" y="310" as="targetPoint" />
          </mxGeometry>
        </mxCell>
        <mxCell id="WrgPq3Kx4bvo5pnGok2Z-16" value="Load balancer" style="text;strokeColor=none;align=center;fillColor=none;html=1;verticalAlign=middle;whiteSpace=wrap;rounded=0;" vertex="1" parent="1">
          <mxGeometry x="190" y="105" width="90" height="30" as="geometry" />
        </mxCell>
        <mxCell id="WrgPq3Kx4bvo5pnGok2Z-17" value="" style="endArrow=classic;html=1;rounded=0;exitX=0.5;exitY=1;exitDx=0;exitDy=0;entryX=0.222;entryY=0.111;entryDx=0;entryDy=0;entryPerimeter=0;" edge="1" parent="1" source="WrgPq3Kx4bvo5pnGok2Z-16" target="WrgPq3Kx4bvo5pnGok2Z-8">
          <mxGeometry width="50" height="50" relative="1" as="geometry">
            <mxPoint x="380" y="260" as="sourcePoint" />
            <mxPoint x="430" y="210" as="targetPoint" />
          </mxGeometry>
        </mxCell>
        <mxCell id="WrgPq3Kx4bvo5pnGok2Z-59" value="" style="image;html=1;image=img/lib/clip_art/computers/Database_128x128.png" vertex="1" parent="1">
          <mxGeometry x="590" y="200" width="80" height="80" as="geometry" />
        </mxCell>
        <mxCell id="WrgPq3Kx4bvo5pnGok2Z-60" value="" style="endArrow=classic;html=1;rounded=0;entryX=0;entryY=0.375;entryDx=0;entryDy=0;entryPerimeter=0;" edge="1" parent="1" source="WrgPq3Kx4bvo5pnGok2Z-11" target="WrgPq3Kx4bvo5pnGok2Z-59">
          <mxGeometry width="50" height="50" relative="1" as="geometry">
            <mxPoint x="390" y="210" as="sourcePoint" />
            <mxPoint x="440" y="160" as="targetPoint" />
          </mxGeometry>
        </mxCell>
        <mxCell id="WrgPq3Kx4bvo5pnGok2Z-61" value="" style="endArrow=classic;html=1;rounded=0;entryX=0;entryY=0.5;entryDx=0;entryDy=0;" edge="1" parent="1" source="WrgPq3Kx4bvo5pnGok2Z-12" target="WrgPq3Kx4bvo5pnGok2Z-59">
          <mxGeometry width="50" height="50" relative="1" as="geometry">
            <mxPoint x="390" y="210" as="sourcePoint" />
            <mxPoint x="440" y="160" as="targetPoint" />
          </mxGeometry>
        </mxCell>
        <mxCell id="WrgPq3Kx4bvo5pnGok2Z-62" value="" style="endArrow=classic;html=1;rounded=0;exitX=1.017;exitY=0.433;exitDx=0;exitDy=0;exitPerimeter=0;" edge="1" parent="1" source="WrgPq3Kx4bvo5pnGok2Z-1">
          <mxGeometry width="50" height="50" relative="1" as="geometry">
            <mxPoint x="390" y="210" as="sourcePoint" />
            <mxPoint x="580" y="240" as="targetPoint" />
          </mxGeometry>
        </mxCell>
        <mxCell id="WrgPq3Kx4bvo5pnGok2Z-63" value="Application/Web servers" style="text;strokeColor=none;align=center;fillColor=none;html=1;verticalAlign=middle;whiteSpace=wrap;rounded=0;" vertex="1" parent="1">
          <mxGeometry x="345" y="-80" width="165" height="30" as="geometry" />
        </mxCell>
        <mxCell id="WrgPq3Kx4bvo5pnGok2Z-64" value="" style="endArrow=classic;html=1;rounded=0;exitX=0.5;exitY=1;exitDx=0;exitDy=0;entryX=0.642;entryY=0.013;entryDx=0;entryDy=0;entryPerimeter=0;" edge="1" parent="1" source="WrgPq3Kx4bvo5pnGok2Z-63" target="WrgPq3Kx4bvo5pnGok2Z-11">
          <mxGeometry width="50" height="50" relative="1" as="geometry">
            <mxPoint x="390" y="110" as="sourcePoint" />
            <mxPoint x="440" y="60" as="targetPoint" />
          </mxGeometry>
        </mxCell>
        <mxCell id="WrgPq3Kx4bvo5pnGok2Z-65" value="Database server" style="text;strokeColor=none;align=center;fillColor=none;html=1;verticalAlign=middle;whiteSpace=wrap;rounded=0;" vertex="1" parent="1">
          <mxGeometry x="660" y="350" width="120" height="30" as="geometry" />
        </mxCell>
        <mxCell id="WrgPq3Kx4bvo5pnGok2Z-66" value="" style="endArrow=classic;html=1;rounded=0;exitX=0.5;exitY=0;exitDx=0;exitDy=0;" edge="1" parent="1" source="WrgPq3Kx4bvo5pnGok2Z-65" target="WrgPq3Kx4bvo5pnGok2Z-59">
          <mxGeometry width="50" height="50" relative="1" as="geometry">
            <mxPoint x="390" y="310" as="sourcePoint" />
            <mxPoint x="440" y="260" as="targetPoint" />
          </mxGeometry>
        </mxCell>
        <mxCell id="WrgPq3Kx4bvo5pnGok2Z-67" value="" style="outlineConnect=0;dashed=0;verticalLabelPosition=bottom;verticalAlign=top;align=center;html=1;shape=mxgraph.aws3.bucket_with_objects;fillColor=#E05243;gradientColor=none;" vertex="1" parent="1">
          <mxGeometry x="660" y="-10" width="60" height="61.5" as="geometry" />
        </mxCell>
        <mxCell id="WrgPq3Kx4bvo5pnGok2Z-68" value="File storage" style="text;strokeColor=none;align=center;fillColor=none;html=1;verticalAlign=middle;whiteSpace=wrap;rounded=0;" vertex="1" parent="1">
          <mxGeometry x="660" y="-90" width="120" height="30" as="geometry" />
        </mxCell>
        <mxCell id="WrgPq3Kx4bvo5pnGok2Z-69" value="" style="endArrow=classic;html=1;rounded=0;exitX=0.25;exitY=1;exitDx=0;exitDy=0;entryX=0.5;entryY=0;entryDx=0;entryDy=0;entryPerimeter=0;" edge="1" parent="1" source="WrgPq3Kx4bvo5pnGok2Z-68" target="WrgPq3Kx4bvo5pnGok2Z-67">
          <mxGeometry width="50" height="50" relative="1" as="geometry">
            <mxPoint x="350" y="200" as="sourcePoint" />
            <mxPoint x="610" y="-40" as="targetPoint" />
          </mxGeometry>
        </mxCell>
        <mxCell id="WrgPq3Kx4bvo5pnGok2Z-70" value="" style="endArrow=classic;html=1;rounded=0;exitX=0.986;exitY=0.36;exitDx=0;exitDy=0;exitPerimeter=0;" edge="1" parent="1" source="WrgPq3Kx4bvo5pnGok2Z-11" target="WrgPq3Kx4bvo5pnGok2Z-67">
          <mxGeometry width="50" height="50" relative="1" as="geometry">
            <mxPoint x="350" y="200" as="sourcePoint" />
            <mxPoint x="400" y="150" as="targetPoint" />
          </mxGeometry>
        </mxCell>
        <mxCell id="WrgPq3Kx4bvo5pnGok2Z-71" value="" style="endArrow=classic;html=1;rounded=0;exitX=1.028;exitY=0.384;exitDx=0;exitDy=0;exitPerimeter=0;entryX=0.17;entryY=0.93;entryDx=0;entryDy=0;entryPerimeter=0;" edge="1" parent="1" source="WrgPq3Kx4bvo5pnGok2Z-1" target="WrgPq3Kx4bvo5pnGok2Z-67">
          <mxGeometry width="50" height="50" relative="1" as="geometry">
            <mxPoint x="350" y="200" as="sourcePoint" />
            <mxPoint x="400" y="150" as="targetPoint" />
          </mxGeometry>
        </mxCell>
        <mxCell id="WrgPq3Kx4bvo5pnGok2Z-72" value="" style="endArrow=classic;html=1;rounded=0;exitX=1;exitY=0.25;exitDx=0;exitDy=0;entryX=0.5;entryY=1;entryDx=0;entryDy=0;entryPerimeter=0;" edge="1" parent="1" source="WrgPq3Kx4bvo5pnGok2Z-12" target="WrgPq3Kx4bvo5pnGok2Z-67">
          <mxGeometry width="50" height="50" relative="1" as="geometry">
            <mxPoint x="350" y="200" as="sourcePoint" />
            <mxPoint x="400" y="150" as="targetPoint" />
          </mxGeometry>
        </mxCell>
        <mxCell id="WrgPq3Kx4bvo5pnGok2Z-73" value="" style="verticalLabelPosition=bottom;html=1;verticalAlign=top;strokeWidth=1;align=center;outlineConnect=0;dashed=0;outlineConnect=0;shape=mxgraph.aws3d.s3Bucket;fillColor=#4286c5;strokeColor=#57A2D8;aspect=fixed;" vertex="1" parent="1">
          <mxGeometry x="510" y="-40.00000000000001" width="61.5" height="63.800000000000004" as="geometry" />
        </mxCell>
        <mxCell id="WrgPq3Kx4bvo5pnGok2Z-74" value="Workers service" style="text;strokeColor=none;align=center;fillColor=none;html=1;verticalAlign=middle;whiteSpace=wrap;rounded=0;" vertex="1" parent="1">
          <mxGeometry x="470" y="-130" width="165" height="30" as="geometry" />
        </mxCell>
        <mxCell id="WrgPq3Kx4bvo5pnGok2Z-75" value="" style="endArrow=classic;html=1;rounded=0;exitX=0.435;exitY=0.883;exitDx=0;exitDy=0;exitPerimeter=0;" edge="1" parent="1" source="WrgPq3Kx4bvo5pnGok2Z-74">
          <mxGeometry width="50" height="50" relative="1" as="geometry">
            <mxPoint x="350" y="60" as="sourcePoint" />
            <mxPoint x="540" y="-50" as="targetPoint" />
          </mxGeometry>
        </mxCell>
        <mxCell id="WrgPq3Kx4bvo5pnGok2Z-76" value="" style="endArrow=classic;html=1;rounded=0;" edge="1" parent="1" source="WrgPq3Kx4bvo5pnGok2Z-73" target="WrgPq3Kx4bvo5pnGok2Z-67">
          <mxGeometry width="50" height="50" relative="1" as="geometry">
            <mxPoint x="350" y="60" as="sourcePoint" />
            <mxPoint x="400" y="10" as="targetPoint" />
          </mxGeometry>
        </mxCell>
        <mxCell id="WrgPq3Kx4bvo5pnGok2Z-79" value="" style="outlineConnect=0;dashed=0;verticalLabelPosition=bottom;verticalAlign=top;align=center;html=1;shape=mxgraph.aws3.queue;fillColor=#D9A741;gradientColor=none;" vertex="1" parent="1">
          <mxGeometry x="561.5" y="70" width="73.5" height="48" as="geometry" />
        </mxCell>
        <mxCell id="WrgPq3Kx4bvo5pnGok2Z-80" value="" style="endArrow=classic;html=1;rounded=0;" edge="1" parent="1" source="WrgPq3Kx4bvo5pnGok2Z-73" target="WrgPq3Kx4bvo5pnGok2Z-79">
          <mxGeometry width="50" height="50" relative="1" as="geometry">
            <mxPoint x="350" y="60" as="sourcePoint" />
            <mxPoint x="400" y="10" as="targetPoint" />
          </mxGeometry>
        </mxCell>
        <mxCell id="WrgPq3Kx4bvo5pnGok2Z-81" value="" style="endArrow=classic;html=1;rounded=0;" edge="1" parent="1" source="WrgPq3Kx4bvo5pnGok2Z-73" target="WrgPq3Kx4bvo5pnGok2Z-59">
          <mxGeometry width="50" height="50" relative="1" as="geometry">
            <mxPoint x="350" y="60" as="sourcePoint" />
            <mxPoint x="830" y="190" as="targetPoint" />
            <Array as="points">
              <mxPoint x="750" y="140" />
            </Array>
          </mxGeometry>
        </mxCell>
      </root>
    </mxGraphModel>
  </diagram>
</mxfile>
